<?xml version="1.0" encoding="UTF-8"?>
<svg xmlns="http://www.w3.org/2000/svg" viewBox="0 0 1280 800" width="1280" height="800">
  
  <defs>
    <linearGradient id="cyanGradient" x1="0%" y1="0%" x2="100%" y2="100%">
      <stop offset="0%" stop-color="#0284C7"/>
      <stop offset="100%" stop-color="#0EA5E9"/>
    </linearGradient>
    <linearGradient id="emeraldGradient" x1="0%" y1="0%" x2="100%" y2="100%">
      <stop offset="0%" stop-color="#059669"/>
      <stop offset="100%" stop-color="#10B981"/>
    </linearGradient>
    <linearGradient id="purpleGradient" x1="0%" y1="0%" x2="100%" y2="100%">
      <stop offset="0%" stop-color="#7C3AED"/>
      <stop offset="100%" stop-color="#A855F7"/>
    </linearGradient>
    <linearGradient id="amberGradient" x1="0%" y1="0%" x2="100%" y2="100%">
      <stop offset="0%" stop-color="#D97706"/>
      <stop offset="100%" stop-color="#F59E0B"/>
    </linearGradient>
    <linearGradient id="cardBgGradient" x1="0%" y1="0%" x2="0%" y2="100%">
      <stop offset="0%" stop-color="#1E293B"/>
      <stop offset="100%" stop-color="#162032"/>
    </linearGradient>
    <linearGradient id="cardHoverGradient" x1="0%" y1="0%" x2="0%" y2="100%">
      <stop offset="0%" stop-color="#26354D"/>
      <stop offset="100%" stop-color="#1A2538"/>
    </linearGradient>
    <filter id="cardShadow" x="-5%" y="-5%" width="110%" height="115%">
      <feDropShadow dx="0" dy="4" stdDeviation="6" flood-color="#000000" flood-opacity="0.4"/>
    </filter>
    <filter id="cyanGlow" x="-20%" y="-20%" width="140%" height="140%">
      <feDropShadow dx="0" dy="0" stdDeviation="4" flood-color="#0EA5E9" flood-opacity="0.6"/>
    </filter>
  </defs>
  <style>
    .font-sans { font-family: -apple-system, BlinkMacSystemFont, 'Segoe UI', Roboto, 'PingFang SC', 'Microsoft YaHei', sans-serif; }
    .font-mono { font-family: 'JetBrains Mono', 'Fira Code', Consolas, monospace; }
  </style>

  <rect width="1280" height="800" rx="10" fill="#0B0F17" stroke="#1E293B" stroke-width="1.5"/>

  
  <!-- Top Window Header (40px) -->
  <rect x="0" y="0" width="1280" height="40" fill="#0F172A"/>
  <line x1="0" y1="40" x2="1280" y2="40" stroke="#1E293B" stroke-width="1"/>

  <!-- Logo & App Title -->
  <g transform="translate(16, 11)">
    <path d="M9 2L2 5v6c0 5.5 3.8 10.7 7 12 3.2-1.3 7-6.5 7-12V5L9 2z" fill="#0EA5E9" fill-opacity="0.2" stroke="#0EA5E9" stroke-width="1.6"/>
    <path d="M6 10l3 3 5-5" fill="none" stroke="#38BDF8" stroke-width="1.8" stroke-linecap="round" stroke-linejoin="round"/>
  </g>
  <text x="42" y="25" class="font-sans" font-size="14" font-weight="700" fill="#F8FAFC">CyberNest</text>
  <rect x="122" y="12" width="76" height="18" rx="4" fill="#1E293B"/>
  <text x="130" y="24" class="font-mono" font-size="10" fill="#64748B">v0.1.0-alpha</text>

  <!-- Center Quick Search Bar -->
  <g transform="translate(460, 6)">
    <rect x="0" y="0" width="360" height="28" rx="6" fill="#1E293B" stroke="#334155" stroke-width="1"/>
    <!-- Search Icon -->
    <path d="M12 9A4 4 0 1 0 4 9a4 4 0 0 0 8 0zm-1 3l3.5 3.5" transform="translate(10, 5)" fill="none" stroke="#64748B" stroke-width="1.5" stroke-linecap="round"/>
    <text x="34" y="18" class="font-sans" font-size="11" fill="#64748B">快速启动工具、搜索备忘、命令...</text>
    <!-- Hotkey Pill -->
    <rect x="296" y="4" width="56" height="20" rx="4" fill="#0F172A" stroke="#475569" stroke-width="0.8"/>
    <text x="304" y="18" class="font-mono" font-size="9" fill="#94A3B8">Ctrl + K</text>
  </g>

  <!-- Right Status & Window Controls -->
  <g transform="translate(1080, 12)">
    <circle cx="10" cy="8" r="4" fill="#10B981"/>
    <circle cx="10" cy="8" r="8" fill="#10B981" fill-opacity="0.2"/>
    <text x="24" y="12" class="font-sans" font-size="11" fill="#94A3B8">SQLite: Ready</text>
  </g>
  <g transform="translate(1200, 0)">
    <!-- Minimize -->
    <rect x="0" y="0" width="26" height="40" fill="transparent"/>
    <line x1="8" y1="20" x2="18" y2="20" stroke="#94A3B8" stroke-width="1.5"/>
    <!-- Maximize -->
    <rect x="26" y="0" width="26" height="40" fill="transparent"/>
    <rect x="34" y="15" width="10" height="10" fill="none" stroke="#94A3B8" stroke-width="1.2"/>
    <!-- Close -->
    <rect x="52" y="0" width="28" height="40" fill="transparent"/>
    <line x1="60" y1="15" x2="70" y2="25" stroke="#94A3B8" stroke-width="1.5"/>
    <line x1="70" y1="15" x2="60" y2="25" stroke="#94A3B8" stroke-width="1.5"/>
  </g>
  
  
  <!-- Left Sidebar (240px) -->
  <rect x="0" y="40" width="240" height="760" fill="#0F172A"/>
  <line x1="240" y1="40" x2="240" y2="800" stroke="#1E293B" stroke-width="1"/>

  <!-- Top Action: + 添加工具 Button -->
  <g transform="translate(16, 56)">
    <rect x="0" y="0" width="208" height="38" rx="6" fill="#0284C7" filter="url(#cyanGlow)"/>
    <path d="M12 5v14m-7-7h14" transform="translate(48, 7)" fill="none" stroke="#FFFFFF" stroke-width="2" stroke-linecap="round"/>
    <text x="84" y="24" class="font-sans" font-size="13" font-weight="600" fill="#FFFFFF">添加新工具</text>
  </g>

  <!-- Section Label: 主导航 -->
  <text x="20" y="122" class="font-sans" font-size="10" font-weight="700" fill="#64748B" letter-spacing="1">MAIN NAVIGATION</text>

  <!-- Nav Item 1: 首页 Dashboard -->
  <g transform="translate(0, 134)">
    
      <rect x="8" y="0" width="224" height="38" rx="6" fill="transparent"/>
    
    <!-- Dashboard Icon -->
    <path d="M3 3h7v7H3zm11 0h7v7h-7zM3 14h7v7H3zm11 0h7v7h-7z" transform="translate(24, 9) scale(0.9)" fill="none" stroke="#94A3B8" stroke-width="1.8" stroke-linecap="round" stroke-linejoin="round"/>
    <text x="54" y="24" class="font-sans" font-size="13" font-weight="500" fill="#94A3B8">首页 (Dashboard)</text>
  </g>

  <!-- Nav Item 2: 全部工具 All Tools -->
  <g transform="translate(0, 178)">
    
      <rect x="8" y="0" width="224" height="38" rx="6" fill="transparent"/>
    
    <!-- Layers Icon -->
    <path d="M12 2L2 7l10 5 10-5-10-5zM2 17l10 5 10-5M2 12l10 5 10-5" transform="translate(24, 9) scale(0.9)" fill="none" stroke="#94A3B8" stroke-width="1.8" stroke-linecap="round" stroke-linejoin="round"/>
    <text x="54" y="24" class="font-sans" font-size="13" font-weight="500" fill="#94A3B8">全部工具</text>
    <!-- Badge -->
    <rect x="188" y="10" width="32" height="18" rx="9" fill="#334155" fill-opacity="0.6"/>
    <text x="204" y="23" text-anchor="middle" class="font-mono" font-size="10" font-weight="600" fill="#94A3B8">48</text>
  </g>

  <!-- Nav Item 3: 分类管理 Categories -->
  <g transform="translate(0, 222)">
    
      <rect x="8" y="0" width="224" height="38" rx="6" fill="transparent"/>
    
    <!-- FolderTree Icon -->
    <path d="M4 20h16a2 2 0 0 0 2-2V8a2 2 0 0 0-2-2h-7.93a2 2 0 0 1-1.66-.9l-.82-1.2A2 2 0 0 0 7.93 3H4a2 2 0 0 0-2 2v13c0 1.1.9 2 2 2z" transform="translate(24, 9) scale(0.9)" fill="none" stroke="#94A3B8" stroke-width="1.8"/>
    <text x="54" y="24" class="font-sans" font-size="13" font-weight="500" fill="#94A3B8">分类与标签管理</text>
    <rect x="194" y="10" width="26" height="18" rx="9" fill="#334155" fill-opacity="0.6"/>
    <text x="207" y="23" text-anchor="middle" class="font-mono" font-size="10" font-weight="600" fill="#94A3B8">8</text>
  </g>

  <!-- Section Label: 常用安全分类 -->
  <text x="20" y="288" class="font-sans" font-size="11" font-weight="700" fill="#94A3B8" letter-spacing="1">QUICK CATEGORIES 快速分类</text>

  <!-- Quick Category Items -->
  <g transform="translate(0, 304)">
    <rect x="8" y="0" width="224" height="32" rx="4" fill="transparent"/>
    <circle cx="32" cy="16" r="4" fill="#0EA5E9"/>
    <text x="46" y="20" class="font-sans" font-size="13.5" font-weight="500" fill="#E2E8F0">Web 渗透工具</text>
    <text x="210" y="20" text-anchor="end" class="font-mono" font-size="12" fill="#64748B">16</text>
  </g>
  <g transform="translate(0, 338)">
    <rect x="8" y="0" width="224" height="32" rx="4" fill="transparent"/>
    <circle cx="32" cy="16" r="4" fill="#10B981"/>
    <text x="46" y="20" class="font-sans" font-size="13.5" font-weight="500" fill="#E2E8F0">信息收集与探测</text>
    <text x="210" y="20" text-anchor="end" class="font-mono" font-size="12" fill="#64748B">12</text>
  </g>
  <g transform="translate(0, 372)">
    <rect x="8" y="0" width="224" height="32" rx="4" fill="transparent"/>
    <circle cx="32" cy="16" r="4" fill="#F59E0B"/>
    <text x="46" y="20" class="font-sans" font-size="13.5" font-weight="500" fill="#E2E8F0">漏洞扫描与验证</text>
    <text x="210" y="20" text-anchor="end" class="font-mono" font-size="12" fill="#64748B">8</text>
  </g>
  <g transform="translate(0, 406)">
    <rect x="8" y="0" width="224" height="32" rx="4" fill="transparent"/>
    <circle cx="32" cy="16" r="4" fill="#A855F7"/>
    <text x="46" y="20" class="font-sans" font-size="13.5" font-weight="500" fill="#E2E8F0">逆向与二进制分析</text>
    <text x="210" y="20" text-anchor="end" class="font-mono" font-size="12" fill="#64748B">5</text>
  </g>
  <g transform="translate(0, 440)">
    <rect x="8" y="0" width="224" height="32" rx="4" fill="transparent"/>
    <circle cx="32" cy="16" r="4" fill="#EF4444"/>
    <text x="46" y="20" class="font-sans" font-size="13.5" font-weight="500" fill="#E2E8F0">内网渗透与提权</text>
    <text x="210" y="20" text-anchor="end" class="font-mono" font-size="12" fill="#64748B">4</text>
  </g>

    <!-- Bottom Section: Settings (Above Engine Ready) + Engine Status & Collapse -->
  <line x1="16" y1="675" x2="224" y2="675" stroke="#1E293B" stroke-width="1"/>

  <!-- Nav Item: 系统设置 (Pinned to bottom-left above engine ready) -->
  <g transform="translate(0, 685)">
    
      <rect x="8" y="0" width="224" height="36" rx="6" fill="transparent"/>
    
    <!-- Settings Gear Icon -->
    <path d="M12 15a3 3 0 1 0 0-6 3 3 0 0 0 0 6z M19.4 15a1.65 1.65 0 0 0 .33 1.82l.06.06a2 2 0 0 1 0 2.83 2 2 0 0 1-2.83 0l-.06-.06a1.65 1.65 0 0 0-1.82-.33 1.65 1.65 0 0 0-1 1.51V21a2 2 0 0 1-2 2 2 2 0 0 1-2-2v-.09A1.65 1.65 0 0 0 9 19.4a1.65 1.65 0 0 0-1.82.33l-.06.06a2 2 0 0 1-2.83 0 2 2 0 0 1 0-2.83l.06-.06a1.65 1.65 0 0 0 .33-1.82 1.65 1.65 0 0 0-1.51-1H3a2 2 0 0 1-2-2 2 2 0 0 1 2-2h.09A1.65 1.65 0 0 0 4.6 9a1.65 1.65 0 0 0-.33-1.82l-.06-.06a2 2 0 0 1 0-2.83 2 2 0 0 1 2.83 0l.06.06a1.65 1.65 0 0 0 1.82.33H9a1.65 1.65 0 0 0 1-1.51V3a2 2 0 0 1 2-2 2 2 0 0 1 2 2v.09a1.65 1.65 0 0 0 1 1.51 1.65 1.65 0 0 0 1.82-.33l.06-.06a2 2 0 0 1 2.83 0 2 2 0 0 1 0 2.83l-.06.06a1.65 1.65 0 0 0-.33 1.82V9a1.65 1.65 0 0 0 1.51 1H21a2 2 0 0 1 2 2 2 2 0 0 1-2 2h-.09a1.65 1.65 0 0 0-1.51 1z" transform="translate(24, 8) scale(0.85)" fill="none" stroke="#94A3B8" stroke-width="1.6"/>
    <text x="54" y="23" class="font-sans" font-size="12" font-weight="500" fill="#94A3B8">系统设置</text>
    <rect x="180" y="9" width="34" height="18" rx="3" fill="#162032"/>
    <text x="197" y="21" text-anchor="middle" class="font-mono" font-size="9" fill="#64748B">偏好</text>
  </g>

  <!-- Engine Ready Status & Collapse Bar (Below Settings) -->
  <line x1="16" y1="730" x2="224" y2="730" stroke="#1E293B" stroke-width="0.8"/>
  <g transform="translate(16, 738)">
    <rect x="0" y="0" width="208" height="28" rx="4" fill="#0B0F17" stroke="#1E293B" stroke-width="0.8"/>
    <circle cx="12" cy="14" r="3" fill="#10B981"/>
    <text x="22" y="18" class="font-sans" font-size="11" fill="#64748B">引擎就绪 (v1.0)</text>
    <!-- Collapse Icon -->
    <path d="M11 19l-7-7 7-7m8 14l-7-7 7-7" transform="translate(180, 5) scale(0.7)" fill="none" stroke="#64748B" stroke-width="1.8" stroke-linecap="round"/>
  </g>
  

  <!-- Main Content Area: Add/Edit Tool Studio (1040 x 760) -->
  <!-- Top Breadcrumb & Action Bar -->
  <g transform="translate(264, 52)">
    <!-- Breadcrumb -->
    <text x="0" y="24" class="font-sans" font-size="12" fill="#64748B">全部工具  &gt;  <tspan fill="#F8FAFC" font-weight="700" font-size="14">编辑工具: Burp Suite Professional</tspan></text>
    <text x="0" y="44" class="font-sans" font-size="11" fill="#94A3B8">配置工具属性、底层可执行程序绝对路径、启动参数与所属标签资产</text>

    <!-- Header Actions (Right) -->
    <g transform="translate(680, 8)">
      <rect x="0" y="0" width="80" height="34" rx="6" fill="#1E293B" stroke="#334155" stroke-width="1"/>
      <text x="40" y="21" text-anchor="middle" class="font-sans" font-size="11" fill="#CBD5E1">取消 (Esc)</text>

      <rect x="90" y="0" width="80" height="34" rx="6" fill="#1E293B" stroke="#334155" stroke-width="1"/>
      <text x="130" y="21" text-anchor="middle" class="font-sans" font-size="11" fill="#CBD5E1">重置修改</text>

      <rect x="180" y="0" width="132" height="34" rx="6" fill="url(#cyanGradient)" filter="url(#cyanGlow)"/>
      <path d="M5 13l4 4L19 7" transform="translate(192, 7) scale(0.85)" fill="none" stroke="#FFFFFF" stroke-width="2.2" stroke-linecap="round" stroke-linejoin="round"/>
      <text x="250" y="21" text-anchor="middle" class="font-sans" font-size="12" font-weight="700" fill="#FFFFFF">保存工具 (Ctrl+S)</text>
    </g>
  </g>

  <!-- 2-Column Split Layout (Y: 108, H: 665) -->
  <g transform="translate(264, 108)">
    <!-- LEFT COLUMN: Form Fields (Width 600px) -->
    <g transform="translate(0, 0)">
      <rect x="0" y="0" width="600" height="665" rx="8" fill="#111827" stroke="#1E293B" stroke-width="1"/>

      <!-- Form Section 1: Basic Info -->
      <g transform="translate(20, 16)">
        <text x="0" y="14" class="font-sans" font-size="13" font-weight="700" fill="#F8FAFC">1. 基础元信息 (BASIC INFO)</text>
        <line x1="0" y1="24" x2="560" y2="24" stroke="#1E293B" stroke-width="1"/>

        <!-- Tool Name -->
        <text x="0" y="44" class="font-sans" font-size="11" font-weight="600" fill="#CBD5E1">工具名称 <tspan fill="#EF4444">*</tspan></text>
        <rect x="0" y="52" width="270" height="34" rx="6" fill="#162032" stroke="#0EA5E9" stroke-width="1.2"/>
        <text x="12" y="74" class="font-sans" font-size="12" fill="#F8FAFC">Burp Suite Professional</text>

        <!-- Icon Selector -->
        <text x="290" y="44" class="font-sans" font-size="11" font-weight="600" fill="#CBD5E1">工具图标</text>
        <rect x="290" y="52" width="270" height="34" rx="6" fill="#162032" stroke="#334155" stroke-width="1"/>
        <circle cx="310" cy="69" r="8" fill="#F97316" fill-opacity="0.3"/>
        <text x="310" y="73" text-anchor="middle" class="font-sans" font-size="10" font-weight="800" fill="#FB923C">B</text>
        <text x="328" y="74" class="font-sans" font-size="11" fill="#CBD5E1">内置橙色盾标 (点击更改 ▾)</text>

        <!-- Description -->
        <text x="0" y="106" class="font-sans" font-size="11" font-weight="600" fill="#CBD5E1">一句话描述</text>
        <rect x="0" y="114" width="560" height="34" rx="6" fill="#162032" stroke="#334155" stroke-width="1"/>
        <text x="12" y="136" class="font-sans" font-size="11" fill="#CBD5E1">企业级 Web 应用安全测试、抓包代理与自动化攻击评估平台</text>
      </g>

      <!-- Form Section 2: Type Selection (Radio Pills) -->
      <g transform="translate(20, 185)">
        <text x="0" y="14" class="font-sans" font-size="13" font-weight="700" fill="#F8FAFC">2. 运行类型 (EXECUTION TYPE) <tspan fill="#EF4444">*</tspan></text>
        <line x1="0" y1="24" x2="560" y2="24" stroke="#1E293B" stroke-width="1"/>

        <!-- Type Radios -->
        <g transform="translate(0, 34)">
          <!-- Web Link -->
          <rect x="0" y="0" width="130" height="36" rx="6" fill="#162032" stroke="#1E293B" stroke-width="1"/>
          <text x="65" y="22" text-anchor="middle" class="font-sans" font-size="11" fill="#94A3B8">○ 在线网页 (Web)</text>

          <!-- Local Executable (Active) -->
          <rect x="140" y="0" width="145" height="36" rx="6" fill="#0EA5E9" fill-opacity="0.15" stroke="#0EA5E9" stroke-width="1.5"/>
          <text x="212" y="22" text-anchor="middle" class="font-sans" font-size="11" font-weight="700" fill="#38BDF8">● 本地程序 (Local GUI)</text>

          <!-- Script -->
          <rect x="295" y="0" width="130" height="36" rx="6" fill="#162032" stroke="#1E293B" stroke-width="1"/>
          <text x="360" y="22" text-anchor="middle" class="font-sans" font-size="11" fill="#94A3B8">○ 自动化脚本 (Script)</text>

          <!-- Memo -->
          <rect x="435" y="0" width="125" height="36" rx="6" fill="#162032" stroke="#1E293B" stroke-width="1"/>
          <text x="497" y="22" text-anchor="middle" class="font-sans" font-size="11" fill="#94A3B8">○ 安全备忘 (Memo)</text>
        </g>
      </g>

      <!-- Form Section 3: Local Executable Specifics -->
      <g transform="translate(20, 275)">
        <text x="0" y="14" class="font-sans" font-size="13" font-weight="700" fill="#F8FAFC">3. 本地启动参数配置 (LAUNCH CONFIG)</text>
        <line x1="0" y1="24" x2="560" y2="24" stroke="#1E293B" stroke-width="1"/>

        <!-- Executable Path -->
        <text x="0" y="44" class="font-sans" font-size="11" font-weight="600" fill="#CBD5E1">可执行文件绝对路径 <tspan fill="#EF4444">*</tspan></text>
        <rect x="0" y="52" width="430" height="34" rx="6" fill="#162032" stroke="#334155" stroke-width="1"/>
        <text x="12" y="74" class="font-mono" font-size="11" fill="#F8FAFC">D:\SecTools\BurpSuite\BurpSuitePro.exe</text>
        <!-- Browse File Button -->
        <g transform="translate(440, 52)">
          <rect x="0" y="0" width="120" height="34" rx="6" fill="#1E293B" stroke="#0EA5E9" stroke-width="1"/>
          <!-- Folder Icon -->
          <path d="M2 5a2 2 0 0 1 2-2h4l2 2h8a2 2 0 0 1 2 2v8a2 2 0 0 1-2 2H4a2 2 0 0 1-2-2z" transform="translate(14, 8) scale(0.85)" fill="none" stroke="#38BDF8" stroke-width="1.8"/>
          <text x="64" y="22" text-anchor="middle" class="font-sans" font-size="11" font-weight="600" fill="#38BDF8">浏览文件...</text>
        </g>

        <!-- Working Directory -->
        <text x="0" y="104" class="font-sans" font-size="11" font-weight="600" fill="#CBD5E1">自定义工作目录 (Working Directory - 默认同目录)</text>
        <rect x="0" y="112" width="560" height="34" rx="6" fill="#162032" stroke="#334155" stroke-width="1"/>
        <text x="12" y="134" class="font-mono" font-size="11" fill="#94A3B8">D:\SecTools\BurpSuite</text>

        <!-- Launch Arguments -->
        <text x="0" y="164" class="font-sans" font-size="11" font-weight="600" fill="#CBD5E1">启动运行参数 (Arguments - 支持传参及内存调优)</text>
        <rect x="0" y="172" width="560" height="34" rx="6" fill="#162032" stroke="#334155" stroke-width="1"/>
        <text x="12" y="194" class="font-mono" font-size="11" fill="#38BDF8">-Xmx4096m -XX:+UseG1GC -jar burploader.jar</text>
      </g>

      <!-- Form Section 4: Category & Tags -->
      <g transform="translate(20, 500)">
        <text x="0" y="14" class="font-sans" font-size="13" font-weight="700" fill="#F8FAFC">4. 归类与标签治理 (TAXONOMY)</text>
        <line x1="0" y1="24" x2="560" y2="24" stroke="#1E293B" stroke-width="1"/>

        <!-- Category Dropdown -->
        <text x="0" y="44" class="font-sans" font-size="11" font-weight="600" fill="#CBD5E1">所属安全分类 <tspan fill="#EF4444">*</tspan></text>
        <rect x="0" y="52" width="270" height="34" rx="6" fill="#162032" stroke="#334155" stroke-width="1"/>
        <circle cx="16" cy="69" r="4" fill="#0EA5E9"/>
        <text x="28" y="74" class="font-sans" font-size="12" fill="#F8FAFC">Web 渗透测试 (Web Pentest)</text>
        <path d="M6 9l6 6 6-6" transform="translate(244, 64) scale(0.6)" fill="none" stroke="#94A3B8" stroke-width="2" stroke-linecap="round"/>

        <!-- Tags Multi-select -->
        <text x="290" y="44" class="font-sans" font-size="11" font-weight="600" fill="#CBD5E1">关联标签 (支持多选)</text>
        <g transform="translate(290, 52)">
          <rect x="0" y="0" width="270" height="34" rx="6" fill="#162032" stroke="#334155" stroke-width="1"/>
          <!-- Tag 1 -->
          <rect x="6" y="5" width="56" height="24" rx="4" fill="#0EA5E9" fill-opacity="0.2"/>
          <text x="34" y="21" text-anchor="middle" class="font-mono" font-size="10" fill="#38BDF8">#Web ×</text>
          <!-- Tag 2 -->
          <rect x="68" y="5" width="62" height="24" rx="4" fill="#0EA5E9" fill-opacity="0.2"/>
          <text x="99" y="21" text-anchor="middle" class="font-mono" font-size="10" fill="#38BDF8">#Proxy ×</text>
          <!-- Tag 3 -->
          <rect x="136" y="5" width="58" height="24" rx="4" fill="#0EA5E9" fill-opacity="0.2"/>
          <text x="165" y="21" text-anchor="middle" class="font-mono" font-size="10" fill="#38BDF8">#Java ×</text>
          <!-- Add Tag -->
          <text x="236" y="22" class="font-sans" font-size="11" fill="#64748B">+ 增加</text>
        </g>
      </g>

      <!-- Form Section 5: Security Cheatsheet / Memo -->
      <g transform="translate(20, 600)">
        <text x="0" y="14" class="font-sans" font-size="11" font-weight="600" fill="#CBD5E1">参数备忘与快捷指南 (可选)</text>
        <rect x="0" y="22" width="560" height="30" rx="4" fill="#090D14" stroke="#1E293B" stroke-width="1"/>
        <text x="12" y="42" class="font-mono" font-size="10" fill="#64748B">默认监听 127.0.0.1:8080 | CA证书: PortSwiggerCA.der | 扩展插件目录在 extra/extensions</text>
      </g>
    </g>

    <!-- RIGHT COLUMN: Real-Time Live Preview & Diagnostics (Width 370px) -->
    <g transform="translate(620, 0)">
      <rect x="0" y="0" width="370" height="665" rx="8" fill="#111827" stroke="#1E293B" stroke-width="1"/>

      <!-- Header of Right Col -->
      <g transform="translate(18, 16)">
        <path d="M1 12s4-8 11-8 11 8 11 8-4 8-11 8-11-8-11-8z" transform="translate(0, 2) scale(0.85)" fill="none" stroke="#0EA5E9" stroke-width="1.8"/>
        <circle cx="10" cy="12" r="3" fill="none" stroke="#0EA5E9" stroke-width="1.8"/>
        <text x="24" y="16" class="font-sans" font-size="13" font-weight="700" fill="#F8FAFC">即时效果预览 (LIVE PREVIEW)</text>
      </g>
      <line x1="0" y1="56" x2="370" y2="56" stroke="#1E293B" stroke-width="1"/>

      <!-- Live Rendered Card -->
      <g transform="translate(26, 75)">
        <rect x="0" y="0" width="318" height="175" rx="8" fill="url(#cardBgGradient)" stroke="#0EA5E9" stroke-width="1.5" filter="url(#cardShadow)"/>
        <!-- Active Glow Badge -->
        <rect x="14" y="18" width="36" height="36" rx="6" fill="#F97316" fill-opacity="0.2"/>
        <text x="32" y="42" text-anchor="middle" class="font-sans" font-size="18" font-weight="800" fill="#FB923C">B</text>
        <text x="58" y="32" class="font-sans" font-size="13" font-weight="700" fill="#F8FAFC">Burp Suite Pro</text>
        <rect x="58" y="38" width="70" height="16" rx="4" fill="#10B981" fill-opacity="0.15"/>
        <text x="93" y="50" text-anchor="middle" class="font-mono" font-size="9" font-weight="700" fill="#34D399">LOCAL GUI</text>
        <text x="294" y="34" font-size="16" fill="#F59E0B">★</text>
        <text x="14" y="76" class="font-sans" font-size="11" fill="#94A3B8">Web 安全测试、抓包代理与自动化扫描</text>
        <!-- Tags -->
        <g transform="translate(14, 88)">
          <rect x="0" y="0" width="46" height="18" rx="4" fill="#1E293B"/>
          <text x="23" y="13" text-anchor="middle" class="font-mono" font-size="10" fill="#38BDF8">#Web</text>
          <rect x="52" y="0" width="54" height="18" rx="4" fill="#1E293B"/>
          <text x="79" y="13" text-anchor="middle" class="font-mono" font-size="10" fill="#38BDF8">#Proxy</text>
          <rect x="112" y="0" width="50" height="18" rx="4" fill="#1E293B"/>
          <text x="137" y="13" text-anchor="middle" class="font-mono" font-size="10" fill="#38BDF8">#Java</text>
        </g>
        <!-- Bottom Path & Button -->
        <line x1="0" y1="122" x2="318" y2="122" stroke="#1E293B" stroke-width="1"/>
        <text x="14" y="142" class="font-mono" font-size="10" fill="#64748B">D:\SecTools\BurpSuitePro.exe</text>
        <g transform="translate(14, 146)">
          <rect x="0" y="0" width="130" height="24" rx="4" fill="url(#emeraldGradient)"/>
          <text x="65" y="16" text-anchor="middle" class="font-sans" font-size="11" font-weight="600" fill="#FFFFFF">▶ 启动应用程序</text>
          <rect x="140" y="0" width="28" height="24" rx="4" fill="#1E293B" stroke="#334155" stroke-width="0.8"/>
          <path d="M8 4v12a2 2 0 0 0 2 2h8a2 2 0 0 0 2-2V7.242a2 2 0 0 0-.602-1.43L16.083 2.57A2 2 0 0 0 14.685 2H10a2 2 0 0 0-2 2z" transform="translate(144, 4) scale(0.65)" fill="none" stroke="#94A3B8" stroke-width="1.5"/>
          <rect x="176" y="0" width="28" height="24" rx="4" fill="#1E293B" stroke="#334155" stroke-width="0.8"/>
          <path d="M12 20h9M16.5 3.5a2.121 2.121 0 0 1 3 3L7 19l-4 1 1-4L16.5 3.5z" transform="translate(180, 4) scale(0.65)" fill="none" stroke="#94A3B8" stroke-width="1.5"/>
          <rect x="212" y="0" width="76" height="24" rx="4" fill="#1E293B" stroke="#334155" stroke-width="0.8"/>
          <text x="250" y="16" text-anchor="middle" class="font-mono" font-size="10" fill="#94A3B8">··· 菜单</text>
        </g>
      </g>

      <!-- System Diagnostics & Health Check -->
      <g transform="translate(20, 275)">
        <text x="0" y="14" class="font-sans" font-size="13" font-weight="700" fill="#F8FAFC">系统就绪度诊断 (SYSTEM CHECK)</text>
        <line x1="0" y1="24" x2="330" y2="24" stroke="#1E293B" stroke-width="1"/>

        <!-- Diagnostics Rows -->
        <g transform="translate(0, 38)">
          <rect x="0" y="0" width="330" height="42" rx="6" fill="#162032" stroke="#10B981" stroke-width="1" stroke-opacity="0.5"/>
          <circle cx="20" cy="21" r="5" fill="#10B981"/>
          <text x="34" y="18" class="font-sans" font-size="11" font-weight="700" fill="#F8FAFC">本地文件已验证</text>
          <text x="34" y="32" class="font-mono" font-size="10" fill="#10B981">大小: 248.5 MB · PE 格式有效</text>
        </g>

        <g transform="translate(0, 90)">
          <rect x="0" y="0" width="330" height="42" rx="6" fill="#162032" stroke="#10B981" stroke-width="1" stroke-opacity="0.5"/>
          <circle cx="20" cy="21" r="5" fill="#10B981"/>
          <text x="34" y="18" class="font-sans" font-size="11" font-weight="700" fill="#F8FAFC">依赖运行环境正常</text>
          <text x="34" y="32" class="font-mono" font-size="10" fill="#10B981">系统检测到 OpenJDK 17.0.9 就绪</text>
        </g>

        <g transform="translate(0, 142)">
          <rect x="0" y="0" width="330" height="42" rx="6" fill="#162032" stroke="#0EA5E9" stroke-width="1" stroke-opacity="0.5"/>
          <circle cx="20" cy="21" r="5" fill="#0EA5E9"/>
          <text x="34" y="18" class="font-sans" font-size="11" font-weight="700" fill="#F8FAFC">路径语法规范</text>
          <text x="34" y="32" class="font-mono" font-size="10" fill="#38BDF8">无空格干扰 · 已预设逃逸字符保护</text>
        </g>

        <!-- Test Launch Button -->
        <g transform="translate(0, 210)">
          <rect x="0" y="0" width="330" height="38" rx="6" fill="url(#emeraldGradient)" filter="url(#cardShadow)"/>
          <text x="165" y="24" text-anchor="middle" class="font-sans" font-size="12" font-weight="700" fill="#FFFFFF">▶ 即刻发起测试运行 (Dry-Run Launch)</text>
        </g>
      </g>
    </g>
  </g>
</svg>